<?xml version="1.0" encoding="utf-8"?>
<!-- Generator: Adobe Illustrator 16.0.0, SVG Export Plug-In . SVG Version: 6.00 Build 0)  -->
<!DOCTYPE svg PUBLIC "-//W3C//DTD SVG 1.1//EN" "http://www.w3.org/Graphics/SVG/1.1/DTD/svg11.dtd">
<svg version="1.1" id="레이어_1" xmlns="http://www.w3.org/2000/svg" xmlns:xlink="http://www.w3.org/1999/xlink" x="0px"
	 y="0px" width="86.25px" height="98px" viewBox="0 0 86.25 98" enable-background="new 0 0 86.25 98" xml:space="preserve">
<g>
	<polygon fill="#FFFFFF" stroke="#696969" stroke-width="0.5" stroke-miterlimit="10" points="2.635,24.091 2.635,24.357 
		2.635,72.506 5.881,74.363 43.956,96.148 43.956,96.148 84.056,73.229 84.056,25.076 42.735,1.438 	"/>
	<g>
		<path fill="#FFFFFF" stroke="#696969" stroke-width="0.5" stroke-miterlimit="10" d="M84.056,25.076"/>
		<path fill="#FFFFFF" stroke="#696969" stroke-width="0.5" stroke-miterlimit="10" d="M43.956,96.148"/>
		<path fill="#FFFFFF" stroke="#696969" stroke-width="0.5" stroke-miterlimit="10" d="M2.635,24.357"/>
		<line fill="none" stroke="#B5B5B6" stroke-width="0.5" stroke-miterlimit="10" x1="43.956" y1="47.73" x2="43.956" y2="96.148"/>
		<polyline fill="none" stroke="#B5B5B6" stroke-width="0.5" stroke-miterlimit="10" points="2.635,24.091 43.956,47.73 
			84.056,25.076 		"/>
	</g>
	<path fill="#FFFFFF" stroke="#696969" stroke-width="0.5" stroke-miterlimit="10" d="M43.956,96.148"/>
	<path fill="none" stroke="#B5B5B6" stroke-width="0.5" stroke-miterlimit="10" d="M43.956,96.148"/>
</g>
<polygon fill="none" stroke="#898989" stroke-miterlimit="10" points="2.635,24.091 2.635,72.506 43.956,96.148 84.056,73.229 
	84.056,25.076 42.735,1.438 "/>
<polygon fill="none" stroke="#B5B5B6" stroke-width="0.5" stroke-miterlimit="10" points="43.853,43.859 77.126,25.062 
	42.838,5.446 9.565,24.244 "/>
<line fill="none" stroke="#B5B5B6" stroke-width="0.5" stroke-miterlimit="10" x1="42.838" y1="5.446" x2="42.838" y2="43.012"/>
<polygon fill="#727171" points="36.037,63.887 8.951,47.973 8.951,39.07 36.037,54.984 "/>
<path fill="#727171" d="M61.129,56.485c0,0.861-0.697,1.964-1.559,2.463l0,0c-0.861,0.499-1.56,0.205-1.56-0.655l0,0
	c0-0.861,0.698-1.964,1.56-2.463l0,0C60.432,55.331,61.129,55.624,61.129,56.485L61.129,56.485z"/>
<path fill="#727171" d="M71.25,50.621c0,0.861-0.698,1.963-1.56,2.463l0,0c-0.861,0.498-1.559,0.205-1.559-0.656l0,0
	c0-0.861,0.697-1.964,1.559-2.462l0,0C70.552,49.465,71.25,49.76,71.25,50.621L71.25,50.621z"/>
<path fill="none" stroke="#898989" stroke-width="1.5" stroke-miterlimit="10" d="M59.896,69.293L59.896,69.293
	c0-2.657,2.153-6.058,4.811-7.599l0,0c2.657-1.541,4.811-0.635,4.811,2.022l0,0"/>
</svg>
