<?xml version="1.0" encoding="utf-8"?>
<!-- Generator: Adobe Illustrator 27.1.1, SVG Export Plug-In . SVG Version: 6.00 Build 0)  -->
<svg version="1.1" id="레이어_1" xmlns="http://www.w3.org/2000/svg" xmlns:xlink="http://www.w3.org/1999/xlink" x="0px"
	 y="0px" viewBox="0 0 70.9 70.9" style="enable-background:new 0 0 70.9 70.9;" xml:space="preserve">
<style type="text/css">
	.st0{fill:#EDEDEC;}
	.st1{fill:#E3CBCF;stroke:#383A3A;stroke-width:2;stroke-miterlimit:10;}
	.st2{fill:none;stroke:#383A3A;stroke-width:2;stroke-miterlimit:10;}
	.st3{fill:#FFFFFF;stroke:#383A3A;stroke-width:2;stroke-miterlimit:10;}
	.st4{fill:#383A3A;}
</style>
<g>
	<g>
		<circle class="st0" cx="44.9" cy="20.9" r="17"/>
		<g>
			<circle class="st1" cx="34.9" cy="40.9" r="25"/>
			<path class="st2" d="M21.7,40.9c0,13.8,5.9,25,13.2,25c7.3,0,13.2-11.2,13.2-25H21.7z"/>
			<line class="st2" x1="57" y1="52.8" x2="12.9" y2="52.8"/>
			<line class="st2" x1="34.9" y1="65.9" x2="34.9" y2="40.9"/>
		</g>
		<line class="st2" x1="9.9" y1="40.9" x2="59.9" y2="40.9"/>
		<g>
			<rect x="36.9" y="10.9" class="st3" width="12" height="30"/>
			<rect x="43.9" y="24.9" class="st4" width="2" height="2"/>
			<rect x="43.9" y="14.9" class="st4" width="2" height="2"/>
			<rect x="43.9" y="19.9" class="st4" width="2" height="2"/>
			<rect x="43.9" y="29.9" class="st4" width="2" height="2"/>
			<rect x="43.9" y="34.9" class="st4" width="2" height="2"/>
		</g>
		<g>
			<polygon class="st3" points="30.9,40.9 16.9,40.9 16.9,11.9 28.9,4.9 30.9,4.9 			"/>
			<line class="st2" x1="18.9" y1="22.9" x2="22.9" y2="22.9"/>
			<line class="st2" x1="18.9" y1="18.9" x2="22.9" y2="18.9"/>
			<line class="st2" x1="18.9" y1="26.9" x2="22.9" y2="26.9"/>
			<line class="st2" x1="18.9" y1="30.9" x2="22.9" y2="30.9"/>
			<line class="st2" x1="18.9" y1="34.9" x2="22.9" y2="34.9"/>
		</g>
		<g>
			<rect x="27.9" y="18.9" class="st3" width="14" height="22"/>
			<line class="st2" x1="30.9" y1="31.9" x2="38.9" y2="31.9"/>
			<line class="st2" x1="30.9" y1="27.9" x2="38.9" y2="27.9"/>
			<line class="st2" x1="30.9" y1="35.9" x2="38.9" y2="35.9"/>
			<line class="st2" x1="30.9" y1="23.9" x2="38.9" y2="23.9"/>
			<rect x="30.9" y="14.9" class="st3" width="8" height="4"/>
		</g>
	</g>
</g>
</svg>
