<?xml version="1.0" encoding="utf-8"?>
<!-- Generator: Adobe Illustrator 26.3.1, SVG Export Plug-In . SVG Version: 6.00 Build 0)  -->
<svg version="1.1" id="레이어_1" xmlns="http://www.w3.org/2000/svg" xmlns:xlink="http://www.w3.org/1999/xlink" x="0px"
	 y="0px" viewBox="0 0 112 70.3" style="enable-background:new 0 0 112 70.3;" xml:space="preserve">
<style type="text/css">
	.st0{fill:#FFB900;}
	.st1{fill:#FFFFFF;}
	.st2{fill:#FFD75E;}
	.st3{fill:url(#SVGID_1_);}
	.st4{opacity:0.4;fill:#FFFFFF;enable-background:new    ;}
	.st5{fill:#DA7B16;}
</style>
<path class="st0" d="M50,11.6l-4.2-4.2c-1.1-1.1-2.7-1.8-4.2-1.8H14c-1.7,0-3,1.3-3,3v56c0,0.6,0.4,1,1,1h82c0.6,0,1-0.4,1-1v-50
	c0-1.7-1.3-3-3-3H50z"/>
<g>
	
		<image style="overflow:visible;opacity:0.75;" width="84" height="53" xlink:href="9ED7682F.png"  transform="matrix(1 0 0 1 11.4488 13.0588)">
	</image>
	<g>
		<rect x="14.9" y="15.7" class="st1" width="76.2" height="46.5"/>
	</g>
</g>
<path class="st2" d="M63.4,20.7l-5.3,3.5c-1.4,0.9-3.1,1.5-4.7,1.5H22.9L11,64.8c-0.1,0.5,0.2,0.8,0.7,0.8h82c0.6,0,1.1-0.4,1.3-0.8
	l12.6-41.6c0.4-1.4-0.6-2.5-2.2-2.5H63.4z"/>
<linearGradient id="SVGID_1_" gradientUnits="userSpaceOnUse" x1="60.7004" y1="50.4433" x2="60.7004" y2="5.5" gradientTransform="matrix(1 0 0.2526 -1 -8.2083 71.11)">
	<stop  offset="0" style="stop-color:#FFFFFF;stop-opacity:0"/>
	<stop  offset="1" style="stop-color:#FFD75E;stop-opacity:0.3"/>
</linearGradient>
<path class="st3" d="M63.4,20.7l-5.3,3.5c-1.4,0.9-3.1,1.5-4.7,1.5H22.9L11,64.8c-0.1,0.5,0.2,0.8,0.7,0.8h82c0.6,0,1.1-0.4,1.3-0.8
	l12.6-41.6c0.4-1.4-0.6-2.5-2.2-2.5H63.4z"/>
<path class="st4" d="M22.9,25.7l-0.3,0.8h30.6c1.9,0,3.8-0.6,5.5-1.7l6.2-4.1h-1.5l-5.3,3.5c-1.4,0.9-3.1,1.5-4.7,1.5H22.9z"/>
<path class="st5" d="M93.8,65.6h-82c-0.6,0-0.9-0.4-0.7-0.8l0,0h84l0,0C94.9,65.2,94.3,65.6,93.8,65.6z"/>
</svg>
