<?xml version="1.0" encoding="utf-8"?>
<!-- Generator: Adobe Illustrator 27.1.1, SVG Export Plug-In . SVG Version: 6.00 Build 0)  -->
<svg version="1.1" id="레이어_1" xmlns="http://www.w3.org/2000/svg" xmlns:xlink="http://www.w3.org/1999/xlink" x="0px"
	 y="0px" viewBox="0 0 70.9 70.9" style="enable-background:new 0 0 70.9 70.9;" xml:space="preserve">
<style type="text/css">
	.st0{fill:#EDEDEC;}
	.st1{fill:#E3CBCF;stroke:#383A3A;stroke-width:2;stroke-miterlimit:10;}
	.st2{fill:#FFFFFF;stroke:#383A3A;stroke-width:2;stroke-miterlimit:10;}
</style>
<g>
	<g>
		<circle class="st0" cx="35.4" cy="35.4" r="27"/>
		<g>
			<path class="st1" d="M7.4,23.4v32h24c0,0,1.5,2,2,2h5c0.5,0,2-2,2-2h23v-32H7.4z"/>
			<path class="st2" d="M38.9,19.4c-1.7,0-3,1.3-3,3v33c0-1.7,1.3-3,3-3h21v-33H38.9z"/>
			<path class="st2" d="M32.9,19.4c1.7,0,3,1.3,3,3v33c0-1.7-1.3-3-3-3h-21v-33H32.9z"/>
			<path class="st2" d="M33.8,19.6c1,0.4,2.2,1.2,2.2,2.9v33c0-1.7-1-2.5-2.4-3l-17.6-6v-33L33.8,19.6z"/>
			<polygon class="st2" points="55.4,31.4 52.4,29.4 49.4,31.4 49.4,17.4 55.4,17.4 			"/>
		</g>
	</g>
</g>
</svg>
