<?xml version="1.0" encoding="utf-8"?>
<!-- Generator: Adobe Illustrator 28.0.0, SVG Export Plug-In . SVG Version: 6.00 Build 0)  -->
<svg version="1.1" id="레이어_1" xmlns="http://www.w3.org/2000/svg" xmlns:xlink="http://www.w3.org/1999/xlink" x="0px"
	 y="0px" viewBox="0 0 720 89" style="enable-background:new 0 0 720 89;" xml:space="preserve">
<style type="text/css">
	.st0{fill:#0067B9;}
	.st1{fill:#009FE8;}
	.st2{fill:#00A99D;}
	.st3{fill:#FFB117;}
</style>
<g>
	<g>
		<path d="M692.6,73.2c-11.3,0-20.4-9.2-20.4-20.4s9.2-20.4,20.4-20.4S713,41.5,713,52.8S703.8,73.2,692.6,73.2z M692.6,39.5
			c-7.4,0-13.3,6-13.3,13.3c0,7.4,6,13.3,13.3,13.3c7.4,0,13.3-6,13.3-13.3C705.9,45.5,699.9,39.5,692.6,39.5z"/>
		<path d="M627.8,73.8c-11.4,0-20.7-9.3-20.7-20.7s9.3-20.7,20.7-20.7c11.4,0,20.7,9.3,20.7,20.7S639.2,73.8,627.8,73.8z
			 M627.8,39.5c-7.5,0-13.6,6.1-13.6,13.6s6.1,13.6,13.6,13.6s13.6-6.1,13.6-13.6S635.3,39.5,627.8,39.5z"/>
		<path d="M660.3,73.2c-2,0-3.6-1.6-3.6-3.6V35.8c0-2,1.6-3.6,3.6-3.6s3.6,1.6,3.6,3.6v33.8C663.9,71.7,662.3,73.2,660.3,73.2z"/>
		<path d="M645,56.7c-2,0-3.6-1.6-3.6-3.6V19.3c0-2,1.6-3.6,3.6-3.6c2,0,3.6,1.6,3.6,3.6v33.8C648.5,55.1,646.9,56.7,645,56.7z"/>
		<path d="M598.6,73.2c-2,0-3.6-1.6-3.6-3.6V35.8c0-2,1.6-3.6,3.6-3.6c2,0,3.6,1.6,3.6,3.6v33.8C602.1,71.7,600.5,73.2,598.6,73.2z"
			/>
		<path d="M557.8,73.1c-7.8,0-14.1-6.3-14.1-14.1V22.8c0-2,1.6-3.6,3.6-3.6c2,0,3.6,1.6,3.6,3.6V59c0,3.9,3.1,7,7,7
			c2,0,3.6,1.6,3.6,3.6C561.3,71.5,559.7,73.1,557.8,73.1z"/>
		<path d="M583.4,73.5c-10.3,0-18.7-8.4-18.7-18.7V35.8c0-2,1.6-3.6,3.6-3.6c2,0,3.6,1.6,3.6,3.6v18.9c0,6.4,5.2,11.6,11.6,11.6
			c6.4,0,11.6-5.2,11.6-11.6c0-2,1.6-3.6,3.6-3.6c2,0,3.6,1.6,3.6,3.6C602.1,65.1,593.7,73.5,583.4,73.5z"/>
		<path d="M557.4,40.1h-17.3c-2,0-3.6-1.6-3.6-3.6c0-2,1.6-3.6,3.6-3.6h17.3c2,0,3.6,1.6,3.6,3.6C560.9,38.5,559.3,40.1,557.4,40.1z
			"/>
		<circle cx="660.3" cy="20.5" r="4.7"/>
		<path d="M514.4,45.8c-5.2,0-10.1-1.5-13.8-4.4c-4-3-6.2-7.2-6.2-11.6s2.2-8.6,6.2-11.6c3.7-2.8,8.6-4.4,13.8-4.4
			c8.9,0,16.6,4.5,19.1,11.3c0.7,1.8-0.2,3.9-2.1,4.6c-1.8,0.7-3.9-0.2-4.6-2.1c-1.5-3.9-6.7-6.7-12.5-6.7c-7,0-12.9,4.1-12.9,8.9
			s5.9,8.9,12.9,8.9c2,0,3.6,1.6,3.6,3.6C518,44.2,516.4,45.8,514.4,45.8z"/>
		<path d="M513,74c-9.3,0-17.5-4.9-20.4-12.1c-0.7-1.8,0.2-3.9,2-4.6c1.8-0.7,3.9,0.2,4.6,2c1.8,4.5,7.4,7.6,13.8,7.6
			c4,0,7.7-1.2,10.4-3.4c2.5-2,3.9-4.5,3.9-7.2s-1.4-5.2-3.9-7.2c-2.8-2.2-6.5-3.4-10.4-3.4c-2,0-3.6-1.6-3.6-3.6
			c0-2,1.6-3.6,3.6-3.6c5.6,0,10.8,1.7,14.8,4.9c4.2,3.3,6.6,7.9,6.6,12.7s-2.3,9.4-6.6,12.7C523.8,72.2,518.6,74,513,74z"/>
		<path d="M373.5,73.4c-11.3,0-20.4-9.2-20.4-20.4s9.2-20.4,20.4-20.4S394,41.7,394,53S384.8,73.4,373.5,73.4z M373.5,39.6
			c-7.3,0-13.3,6-13.3,13.3s6,13.3,13.3,13.3s13.3-6,13.3-13.3S380.9,39.6,373.5,39.6z"/>
		<path d="M390.4,73.4c-2,0-3.6-1.6-3.6-3.6V53c0-2,1.6-3.6,3.6-3.6S394,51,394,53v16.9C394,71.8,392.4,73.4,390.4,73.4z"/>
		<path d="M442.9,73.4c-11.3,0-20.4-9.2-20.4-20.4s9.2-20.4,20.4-20.4s20.4,9.2,20.4,20.4S454.2,73.4,442.9,73.4z M442.9,39.6
			c-7.3,0-13.3,6-13.3,13.3s6,13.3,13.3,13.3s13.3-6,13.3-13.3S450.3,39.6,442.9,39.6z"/>
		<path d="M459.8,73.4c-2,0-3.6-1.6-3.6-3.6V53c0-2,1.6-3.6,3.6-3.6s3.6,1.6,3.6,3.6v16.9C463.3,71.8,461.8,73.4,459.8,73.4z"/>
		<path d="M322.2,72.8h-12.7c-2,0-3.6-1.6-3.6-3.6V21.5c0-2,1.6-3.6,3.6-3.6h12.7c15.1,0,27.5,12.3,27.5,27.5S337.3,72.8,322.2,72.8
			z M313,65.7h9.1c11.2,0,20.4-9.1,20.4-20.4S333.4,25,322.2,25H313V65.7z"/>
		<path d="M416.4,42.5h-16.3c-2,0-3.6-1.6-3.6-3.6c0-2,1.6-3.6,3.6-3.6h16.3c2,0,3.6,1.6,3.6,3.6C420,40.9,418.4,42.5,416.4,42.5z"
			/>
		<path d="M406.8,64.4c-2,0-3.6-1.6-3.6-3.6V26c0-2,1.6-3.6,3.6-3.6s3.6,1.6,3.6,3.6v34.9C410.4,62.8,408.8,64.4,406.8,64.4z"/>
		<path d="M417.3,72.3h-2.6c-6.3,0-11.4-5.1-11.4-11.4c0-2,1.6-3.6,3.6-3.6s3.6,1.6,3.6,3.6c0,2.4,1.9,4.3,4.3,4.3h2.6
			c2,0,3.6,1.6,3.6,3.6C420.9,70.7,419.3,72.3,417.3,72.3z"/>
	</g>
	<g>
		<path d="M227.9,73.8c-2.2,0-3.9-1.8-3.9-3.9V34.5c0-2.2,1.8-3.9,3.9-3.9c2.2,0,3.9,1.8,3.9,3.9v35.4
			C231.9,72.1,230.1,73.8,227.9,73.8z"/>
		<circle cx="227.9" cy="20.5" r="4.9"/>
		<path d="M140.1,74c-15.7,0-28.4-12.7-28.4-28.4s12.7-28.4,28.4-28.4c15.7,0,28.4,12.7,28.4,28.4S155.7,74,140.1,74z M140.1,25.2
			c-11.3,0-20.5,9.2-20.5,20.5s9.2,20.5,20.5,20.5s20.5-9.2,20.5-20.5S151.4,25.2,140.1,25.2z"/>
		<path d="M268.6,73.9c-15.7,0-28.4-12.7-28.4-28.4s12.7-28.4,28.4-28.4c7.6,0,14.7,3,20.1,8.3c1.5,1.5,1.5,4,0,5.6
			c-1.5,1.5-4,1.5-5.6,0c-3.9-3.9-9-6-14.5-6c-11.3,0-20.5,9.2-20.5,20.5S257.3,66,268.6,66c10,0,18.3-7.1,20.1-16.6h-18.3
			c-2.2,0-3.9-1.8-3.9-3.9s1.8-3.9,3.9-3.9H293c2.2,0,3.9,1.8,3.9,3.9C297,61.2,284.2,73.9,268.6,73.9z"/>
		<path d="M163.6,76.6c-1,0-2-0.4-2.8-1.2l-17.3-17.3c-1.5-1.5-1.5-4,0-5.6c1.5-1.5,4-1.5,5.6,0l17.3,17.3c1.5,1.5,1.5,4,0,5.6
			C165.6,76.3,164.6,76.6,163.6,76.6z"/>
		<g>
			<path d="M196.3,45.5h-14.4c-2.2,0-3.9-1.8-3.9-3.9V21.1c0-2.2,1.8-3.9,3.9-3.9h14.4c7.8,0,14.2,6.4,14.2,14.2
				C210.5,39.1,204.1,45.5,196.3,45.5z M185.9,37.6h10.4c3.5,0,6.3-2.8,6.3-6.3c0-3.5-2.8-6.3-6.3-6.3h-10.4V37.6z"/>
			<path d="M181.9,74.2c-1,0-2-0.4-2.8-1.2c-0.7-0.7-1.2-1.7-1.2-2.8V41.6c0-2.2,1.8-3.9,3.9-3.9h14.4c10,0,18.2,8.2,18.2,18.3
				c0,10-8.2,18.2-18.2,18.3L181.9,74.2z M185.9,66.3h10.4c5.7,0,10.3-4.7,10.3-10.4c0-5.7-4.6-10.4-10.3-10.4l-10.4,0V66.3z"/>
		</g>
	</g>
</g>
<g>
	<circle class="st0" cx="45.7" cy="45.2" r="39.2"/>
	<path class="st1" d="M68.6,6H45.7v32.6h22.9c9,0,16.3-7.3,16.3-16.3S77.6,6,68.6,6z"/>
	<path class="st2" d="M91.3,61.5c0-12.6-10.2-22.7-22.7-22.8v0H45.7v45.6h22.9v0C81.1,84.2,91.3,74,91.3,61.5z"/>
	<polygon class="st3" points="84.9,84.4 45.7,84.4 45.7,45.2 	"/>
</g>
</svg>
