<?xml version="1.0" encoding="utf-8"?>
<!-- Generator: Adobe Illustrator 28.0.0, SVG Export Plug-In . SVG Version: 6.00 Build 0)  -->
<svg version="1.1" id="레이어_1" xmlns="http://www.w3.org/2000/svg" xmlns:xlink="http://www.w3.org/1999/xlink" x="0px"
	 y="0px" viewBox="0 0 300 300" style="enable-background:new 0 0 300 300;" xml:space="preserve">
<style type="text/css">
	.st0{fill:#0067B9;}
	.st1{fill:#009FE8;}
	.st2{fill:#00A99D;}
	.st3{fill:#FFB117;}
</style>
<g>
	<circle class="st0" cx="138.9" cy="149.6" r="134.6"/>
	<path class="st1" d="M216.3,15L139,15c-0.1,0-0.1,0-0.1,0.1V127c0,0.1,0,0.1,0.1,0.1h78.5c31.4,0,56.8-25.9,56-57.5
		C272.8,39,246.9,15,216.3,15z"/>
	<path class="st2" d="M295.5,205.4c0-43.1-34.9-78.1-78-78.3v0h-78.6v156.6h78.6v0C260.6,283.5,295.5,248.5,295.5,205.4z"/>
	<polygon class="st3" points="273.6,284.3 138.9,284.3 138.9,149.6 	"/>
</g>
</svg>
