<?xml version="1.0" encoding="utf-8"?>
<!-- Generator: Adobe Illustrator 28.0.0, SVG Export Plug-In . SVG Version: 6.00 Build 0)  -->
<svg version="1.1" id="레이어_1" xmlns="http://www.w3.org/2000/svg" xmlns:xlink="http://www.w3.org/1999/xlink" x="0px"
	 y="0px" viewBox="0 0 378 115" style="enable-background:new 0 0 378 115;" xml:space="preserve">
<style type="text/css">
	.st0{fill:#0067B9;}
	.st1{fill:#009FE8;}
	.st2{fill:#00A99D;}
	.st3{fill:#FFB117;}
</style>
<g>
	<path d="M362.5,83.9c-6.3,0-11.5,5.2-11.5,11.5c0,6.3,5.2,11.5,11.5,11.5s11.5-5.2,11.5-11.5C374,89.1,368.8,83.9,362.5,83.9z
		 M362.5,102.9c-4.1,0-7.5-3.4-7.5-7.5c0-4.1,3.4-7.5,7.5-7.5c4.1,0,7.5,3.4,7.5,7.5C370,99.5,366.6,102.9,362.5,102.9z"/>
	<path d="M344.4,83.9c-1.1,0-2,0.9-2,2v19c0,1.1,0.9,2,2,2c1.1,0,2-0.9,2-2v-19C346.4,84.8,345.5,83.9,344.4,83.9z"/>
	<path d="M335.7,74.6c-1.1,0-2,0.9-2,2v10.3c-2.1-1.8-4.7-2.9-7.7-2.9c-6.4,0-11.7,5.2-11.7,11.7c0,6.4,5.2,11.7,11.7,11.7
		c6.4,0,11.7-5.2,11.7-11.6c0,0,0,0,0,0v-19C337.7,75.4,336.8,74.6,335.7,74.6z M326.1,103.2c-4.2,0-7.7-3.4-7.7-7.7
		c0-4.2,3.4-7.7,7.7-7.7s7.7,3.4,7.7,7.7C333.7,99.8,330.3,103.2,326.1,103.2z"/>
	<path d="M309.6,83.9c-1.1,0-2,0.9-2,2v10.4c0,0.1,0,0.2,0,0.3c0,3.6-2.9,6.5-6.5,6.5c-3.6,0-6.5-2.9-6.5-6.5V85.9c0-1.1-0.9-2-2-2
		c-1.1,0-2,0.9-2,2v10.7c0,5.8,4.7,10.5,10.5,10.5c2.5,0,4.7-0.9,6.5-2.3v0.2c0,1.1,0.9,2,2,2c1.1,0,2-0.9,2-2v-19
		C311.6,84.8,310.7,83.9,309.6,83.9z"/>
	<path d="M286.7,102.8c-2.2,0-3.9-1.8-3.9-3.9V88.3h3.7c1.1,0,2-0.9,2-2c0-1.1-0.9-2-2-2h-3.7v-5.7c0-1.1-0.9-2-2-2
		c-1.1,0-2,0.9-2,2v5.7h-2c-1.1,0-2,0.9-2,2c0,1.1,0.9,2,2,2h2v10.6c0,4.4,3.6,7.9,7.9,7.9c1.1,0,2-0.9,2-2S287.8,102.8,286.7,102.8
		z"/>
	<circle cx="344.4" cy="77.2" r="2.7"/>
	<path d="M269.8,90.2c-1.9-1.5-4.4-2.5-7.1-2.7c-0.1,0-0.3-0.1-0.4-0.1c-3.9,0-7.3-2.3-7.3-5s3.3-5,7.3-5c3.2,0,6.2,1.6,7,3.8
		c0.4,1,1.5,1.5,2.6,1.2c1-0.4,1.5-1.5,1.2-2.6c-1.4-3.8-5.8-6.3-10.8-6.3c-2.9,0-5.7,0.9-7.7,2.5c-2.3,1.7-3.5,4-3.5,6.5
		c0,2.5,1.2,4.8,3.5,6.5c1.8,1.3,4,2.2,6.5,2.4c0.2,0,0.3,0.1,0.5,0.1c2.2,0,4.3,0.7,5.9,1.9c1.4,1.1,2.2,2.5,2.2,4
		c0,1.5-0.8,2.9-2.2,4c-1.5,1.2-3.6,1.9-5.9,1.9c-3.6,0-6.7-1.8-7.7-4.3c-0.4-1-1.6-1.5-2.6-1.1c-1,0.4-1.5,1.6-1.1,2.6
		c1.6,4.1,6.2,6.8,11.5,6.8c3.1,0,6.1-1,8.3-2.7c2.4-1.9,3.7-4.4,3.7-7.2C273.6,94.6,272.2,92.1,269.8,90.2z"/>
	<path d="M192.6,84c-6.3,0-11.5,5.2-11.5,11.5s5.2,11.5,11.5,11.5c2.9,0,5.5-1.1,7.5-2.8v0.8c0,1.1,0.9,2,2,2c1.1,0,2-0.9,2-2v-9.5
		C204,89.2,198.9,84,192.6,84z M192.6,103c-4.1,0-7.5-3.4-7.5-7.5c0-4.1,3.4-7.5,7.5-7.5c4.1,0,7.5,3.4,7.5,7.5
		C200.1,99.6,196.7,103,192.6,103z"/>
	<path d="M231.6,84c-6.3,0-11.5,5.2-11.5,11.5s5.2,11.5,11.5,11.5c2.9,0,5.5-1.1,7.5-2.8v0.8c0,1.1,0.9,2,2,2c1.1,0,2-0.9,2-2v-9.5
		C243.1,89.2,237.9,84,231.6,84z M231.6,103c-4.1,0-7.5-3.4-7.5-7.5c0-4.1,3.4-7.5,7.5-7.5c4.1,0,7.5,3.4,7.5,7.5
		C239.1,99.6,235.7,103,231.6,103z"/>
	<path d="M163.6,75.8h-9.1v30.9h9.1c8.5,0,15.4-6.9,15.4-15.4S172.2,75.8,163.6,75.8z M163.6,102.7h-5.1V79.8h5.1
		c6.3,0,11.5,5.1,11.5,11.5S170,102.7,163.6,102.7z"/>
	<path d="M217.2,102.4h-1.5c-1.3,0-2.4-1.1-2.4-2.4V89.6h3.4c1.1,0,2-0.9,2-2c0-1.1-0.9-2-2-2h-3.4v-5.3c0-1.1-0.9-2-2-2
		c-1.1,0-2,0.9-2,2v5.3h-1.8c-1.1,0-2,0.9-2,2c0,1.1,0.9,2,2,2h1.8v10.3c0,3.5,2.9,6.4,6.4,6.4h1.5c1.1,0,2-0.9,2-2
		C219.2,103.3,218.3,102.4,217.2,102.4z"/>
</g>
<circle class="st0" cx="58.8" cy="58.2" r="53.6"/>
<path class="st1" d="M89.5,4.7l-30.7,0c0,0,0,0,0,0v44.5c0,0,0,0,0,0H90c12.5,0,22.6-10.3,22.3-22.9C112,14.2,101.7,4.7,89.5,4.7z"
	/>
<path class="st2" d="M121,80.4c0-17.2-13.9-31.1-31-31.1v0H58.8v62.3H90v0C107.2,111.4,121,97.5,121,80.4z"/>
<g>
	<path d="M269.5,69.4c-2.2,0-4-1.8-4-4V36c0-2.2,1.8-4,4-4s4,1.8,4,4v29.4C273.5,67.7,271.7,69.4,269.5,69.4z"/>
	<circle cx="269.5" cy="16.3" r="6.9"/>
	<path d="M180.8,69.7c-15.8,0-28.7-12.9-28.7-28.7s12.9-28.7,28.7-28.7c15.8,0,28.7,12.9,28.7,28.7S196.6,69.7,180.8,69.7z
		 M180.8,20.3c-11.4,0-20.7,9.3-20.7,20.7s9.3,20.7,20.7,20.7c11.4,0,20.7-9.3,20.7-20.7S192.2,20.3,180.8,20.3z"/>
	<path d="M310.6,69.5c-15.8,0-28.7-12.9-28.7-28.7s12.9-28.7,28.7-28.7c7.7,0,14.9,3,20.3,8.4c1.6,1.6,1.6,4.1,0,5.6
		c-1.6,1.6-4.1,1.6-5.6,0c-3.9-3.9-9.1-6.1-14.6-6.1c-11.4,0-20.7,9.3-20.7,20.7s9.3,20.7,20.7,20.7c10.1,0,18.5-7.2,20.3-16.7
		h-18.5c-2.2,0-4-1.8-4-4s1.8-4,4-4h22.8c2.2,0,4,1.8,4,4C339.3,56.7,326.4,69.5,310.6,69.5z"/>
	<path d="M204.5,72.3c-1,0-2-0.4-2.8-1.2l-17.5-17.5c-1.6-1.6-1.6-4.1,0-5.6c1.6-1.6,4.1-1.6,5.6,0l17.5,17.5c1.6,1.6,1.6,4.1,0,5.6
		C206.6,71.9,205.6,72.3,204.5,72.3z"/>
	<g>
		<path d="M237.6,40.9h-14.5c-2.2,0-4-1.8-4-4V16.2c0-2.2,1.8-4,4-4h14.5c7.9,0,14.3,6.4,14.3,14.3C252,34.4,245.5,40.9,237.6,40.9z
			 M227.1,32.9h10.5c3.5,0,6.4-2.9,6.4-6.4s-2.9-6.4-6.4-6.4h-10.5V32.9z"/>
		<path d="M223.1,69.8c-1.1,0-2.1-0.4-2.8-1.2c-0.7-0.7-1.2-1.8-1.2-2.8V36.9c0-2.2,1.8-4,4-4h14.5c10.1,0,18.4,8.3,18.4,18.4
			c0,10.1-8.2,18.4-18.4,18.4L223.1,69.8z M227.1,61.8h10.5c5.7,0,10.4-4.7,10.4-10.5c0-5.8-4.7-10.5-10.4-10.5l-10.5,0V61.8z"/>
	</g>
</g>
<polygon class="st3" points="112.3,111.8 58.8,111.8 58.8,58.2 "/>
</svg>
