<?xml version="1.0" encoding="utf-8"?>
<!-- Generator: Adobe Illustrator 26.4.1, SVG Export Plug-In . SVG Version: 6.00 Build 0)  -->
<svg version="1.1" id="레이어_1" xmlns="http://www.w3.org/2000/svg" xmlns:xlink="http://www.w3.org/1999/xlink" x="0px"
	 y="0px" viewBox="0 0 167 168" style="enable-background:new 0 0 167 168;" xml:space="preserve">
<style type="text/css">
	.st0{fill:#E6E7EB;}
	.st1{fill:#9F9F9E;}
	.st2{fill:#FFFFFF;}
	.st3{fill:#2494F1;}
	.st4{fill:#FFFFFF;stroke:#FFFFFF;stroke-miterlimit:10;}
</style>
<circle class="st0" cx="83.47" cy="83.47" r="80.47"/>
<path class="st1" d="M83.47,145.67c-33.72,0-61.15-27.43-61.15-61.15c0-33.72,27.43-61.15,61.15-61.15
	c33.72,0,61.15,27.43,61.15,61.15C144.62,118.23,117.19,145.67,83.47,145.67z M83.47,27.45C52,27.45,26.4,53.05,26.4,84.52
	c0,31.47,25.6,57.07,57.07,57.07s57.07-25.6,57.07-57.07C140.54,53.05,114.94,27.45,83.47,27.45z"/>
<circle class="st2" cx="83.5" cy="84.4" r="45.23"/>
<path class="st1" d="M83.47,131.98c-26.17,0-47.46-21.29-47.46-47.46c0-26.17,21.29-47.47,47.46-47.47
	c26.17,0,47.46,21.29,47.46,47.47C130.94,110.69,109.64,131.98,83.47,131.98z M83.47,41.13c-23.92,0-43.38,19.46-43.38,43.38
	c0,23.92,19.46,43.38,43.38,43.38c23.92,0,43.38-19.46,43.38-43.38C126.85,60.59,107.39,41.13,83.47,41.13z"/>
<path class="st3" d="M83.21,86.71c-0.08,0-0.17,0-0.25-0.02c-0.59-0.07-1.12-0.4-1.44-0.89L62.58,57.41
	c-0.62-0.94-0.37-2.21,0.57-2.83c0.94-0.63,2.2-0.37,2.83,0.57L83.6,81.57l17.17-15.45c0.84-0.76,2.13-0.69,2.88,0.15
	c0.75,0.84,0.69,2.13-0.15,2.88L84.57,86.18C84.2,86.52,83.71,86.71,83.21,86.71z"/>
<path class="st1" d="M83.47,52.49c-1.13,0-2.04-0.91-2.04-2.04V39.09c0-1.13,0.91-2.04,2.04-2.04c1.13,0,2.04,0.91,2.04,2.04v11.36
	C85.51,51.58,84.6,52.49,83.47,52.49z"/>
<path class="st1" d="M49.41,86.56H38.05c-1.13,0-2.04-0.91-2.04-2.04c0-1.13,0.91-2.04,2.04-2.04h11.36c1.13,0,2.04,0.91,2.04,2.04
	C51.45,85.64,50.54,86.56,49.41,86.56z"/>
<path class="st1" d="M83.47,131.98c-1.13,0-2.04-0.91-2.04-2.04v-11.35c0-1.13,0.91-2.04,2.04-2.04c1.13,0,2.04,0.91,2.04,2.04
	v11.35C85.51,131.06,84.6,131.98,83.47,131.98z"/>
<path class="st1" d="M128.9,86.56h-11.35c-1.13,0-2.04-0.91-2.04-2.04c0-1.13,0.91-2.04,2.04-2.04h11.35c1.13,0,2.04,0.91,2.04,2.04
	C130.94,85.64,130.02,86.56,128.9,86.56z"/>
<path class="st3" d="M144.89,31.05c0.07-0.23,0.11-0.46,0.11-0.71V24.5c0-8.98-7.31-16.29-16.3-16.29
	c-8.98,0-16.29,7.31-16.29,16.29v5.84c0,0.25,0.05,0.48,0.11,0.71c-3.74,3.98-6.04,9.33-6.04,15.21c0,12.25,9.97,22.22,22.22,22.22
	c12.25,0,22.22-9.97,22.22-22.22C150.93,40.37,148.63,35.02,144.89,31.05z M128.71,13.21c6.23,0,11.3,5.07,11.3,11.29v2.63
	c-3.31-1.96-7.17-3.1-11.3-3.1c-4.12,0-7.98,1.13-11.29,3.09V24.5C117.42,18.27,122.48,13.21,128.71,13.21z"/>
<path class="st4" d="M133.95,45.19c0-2.89-2.35-5.24-5.25-5.24c-2.89,0-5.24,2.35-5.24,5.24c0,2.55,1.83,4.67,4.24,5.14v5.47
	c0,0.55,0.45,1,1,1c0.55,0,1-0.45,1-1v-5.47C132.12,49.87,133.95,47.74,133.95,45.19z"/>
</svg>
